<?xml version="1.0" encoding="UTF-8"?>
<svg xmlns="http://www.w3.org/2000/svg" xmlns:xlink="http://www.w3.org/1999/xlink" version="1.1" id="Layer_1" x="0px" y="0px" viewBox="0 0 2698.67 1157.33" style="enable-background:new 0 0 2698.67 1157.33;" xml:space="preserve">
<style type="text/css">
	.st0{fill-rule:evenodd;clip-rule:evenodd;fill:url(#SVGID_1_);}
	.st1{fill-rule:evenodd;clip-rule:evenodd;fill:url(#SVGID_00000113328533389404219220000004663242788555709592_);}
	.st2{fill:#FFFFFF;}
	.st3{fill:#DEAA6A;}
	.st4{fill:none;stroke:#DEAA6A;stroke-width:3;stroke-miterlimit:10;}
	.st5{fill:#39B54A;}
</style>
<linearGradient id="SVGID_1_" gradientUnits="userSpaceOnUse" x1="1855.3353" y1="343.3741" x2="2076.938" y2="888.3128">
	<stop offset="1.438503e-07" style="stop-color:#76B143"></stop>
	<stop offset="1" style="stop-color:#206A36"></stop>
</linearGradient>
<path class="st0" d="M1756.89,461.33c-11.16,9.32-17.03,17.36-21.56,24.22c-12,18.21-15.11,39.33-16.74,47.48  c-5.54,27.7-13.13,76.9,6.67,153.76c7.17,27.81,18.46,54.14,30.5,80.08l-50.27,31.48c-1.43,0-9.98-17.63-11.34-20.51  c-55.05-116.23-67.83-282.48-7.51-398.85c18.64-35.97,47.5-74.9,84.11-93.72c53.33-27.4,111.28-21.04,163.99,4.26l1.9-1.21  c-0.61-3.97,1.23-8.29,1.23-11.85c0-4.69-12.19-22.5-15.64-27.4c-17.67-25.12-43.19-53.91-72.11-65.75  c-7.38-3.02-15.13-5.11-22.81-7.2l7.5-34.59c3.98-2.86,29.3,9.03,34.36,11.75c26.92,14.44,50.84,39.13,64.15,66.73  c3.16,6.54,4.19,13.21,7.96,18.99l0.54-9.52c-3.7-64.96,23.84-117.5,81.2-148.48l29.63-13.81c1.6,5.88,4.48,11.37,6.3,17.19  c10.76,34.43,11.92,92.35-5.92,124.53c-11.35,20.46-36.34,35.5-59.21,39.02c-2.92-14.07-2.8-30,0.16-44.12  c1.06-5.05,5.16-13.38,5.51-17.5c0.15-1.72,0.34-2.08-1.27-3.22c-13.91,14.2-26.06,32.92-33.48,51.41c-1.14,2.84-5.98,16.06-5.98,18  c0,12.31,0.24,24.66,0,36.96c-0.01,0.28-0.9,0.61-0.88,1l2.22,1.36c8.43-4.91,17.61-8.99,26.84-12.15  c72.17-24.65,147.55-13.87,195.03,49.33c36.69,48.84,40.48,105.15,25.48,163.19c-5.25,20.32-13.21,32.5-9.67,54.79  c2.99,18.82,22,33.28,31.11,50.78c5.83,11.2,8.92,17.69,3,29.76c-9.48,19.32-42.77,11.67-37.91,38.11  c1.37,7.43,6.71,10.88,9.38,17.29c-4.22,8.04-11.16,10.7-17.76,16.26l0.05,1.69c12.49,13.85,8.07,30.15-8,38.3  c8.36,19.27,6.2,44.98-11.07,58.81c-40.32,32.31-117.19-22.49-156.39,23.44c-27.6,32.34-16.71,87.95,16.56,112.34l11.92,6.55  c-34.87-4.63-69.12-18.48-99.42-35.94c-70.27-40.51-141.61-120.14-165.03-198.62c-6.67-22.35-10.22-45.15-11.19-68.5l1.58-1.47  c4.68-0.15,9.22-1.66,13.83-2.15c51.6-5.51,96.82,9.62,140.63,35.17c5.41,3.15,25.96,17.99,30.11,17.75  c5.92-0.34,15.69-9.21,20.68-12.36c36.81-23.28,71.64-41.71,113.8-54.03c8.25-2.41,17.48-5.14,25.95-5.53l0-2.99  c-43.71-1.96-85.62,11.71-123.9,31.45c-13.67,7.05-27.35,14.79-39.31,24.42c-11.04-10.83-25.27-19.79-38.93-27.07  c-33.24-17.72-73.28-29.02-111.02-30.84c-12.21-0.59-24.39,0.97-36.56,0.57c-3.37-39.86-1.94-76.13-2.9-115.68  c-0.23-2.72-0.06-15.99-0.03-18.66 M1938.77,626.64c0.39-39.12-0.48-78.29-0.04-117.42c0.24-21.09,0.46-42.74,1-63.94  c0.2-7.81,1.82-17.18,2.09-25c0.04-1.2,0.09-2.34-0.57-3.41c-44.32-36.08-105.02-56.45-162.39-49.54l-0.5,207.43  c1.26,1.81,12.13,0.73,15.04,0.95c43.46,3.28,87.43,14.21,124.71,37.13C1920.1,614.06,1937.95,627.59,1938.77,626.64z   M2115.6,366.89c-57.14-3.69-114.25,13.26-158.63,49.16c-0.38,3.35-0.37,6.9-0.21,10.27c3.16,64.22,3.33,128.51,3.94,192.86  c1.2,1.5-0.45,9.31,1.54,9.42c0.88,0.05,10.99-10.34,13.02-11.93c9.17-7.19,20.72-12.75,31.25-17.7  c34.59-16.26,70.59-24.08,109.09-23.29c0.18-18.54,0.51-36.94,0.95-55.49c0.94-39.65,1.42-79.14,0-118.8  C2116.14,389.92,2116.22,378.37,2115.6,366.89z"></path>
<linearGradient id="SVGID_00000114776460123772099490000017064811368544628364_" gradientUnits="userSpaceOnUse" x1="2231.1948" y1="339.1425" x2="2452.3352" y2="882.9445">
	<stop offset="1.438503e-07" style="stop-color:#76B143"></stop>
	<stop offset="1" style="stop-color:#206A36"></stop>
</linearGradient>
<path style="fill-rule:evenodd;clip-rule:evenodd;fill:url(#SVGID_00000114776460123772099490000017064811368544628364_);" d="  M2097.64,183.67c-0.15-0.06,2.68,0.11,4.57,0.17c16.02,0.54,55.89,3.23,82.85,8.94c116.49,24.66,220.6,88.24,281.36,189.96  c79.3,132.76,84.54,299.53,6.2,432.6c-40.35,68.55-110.47,137.27-183.55,170.11c-3.75,1.69-8.03,4.66-12.21,1.93  c-2.87-1.87-20.86-37.45-22.25-42.36c-1.59-5.6-3.81-8.67,1.59-12.27c10.06-6.7,32.76-19.21,44.54-26.71  c131.4-83.66,210.3-232.82,176.4-389.67c-36.76-170.08-186.72-312.9-360.51-320.86c-5.53-0.25-18-0.74-18.7-1.09L2097.64,183.67z"></path>
<path class="st2" d="M1938.77,626.64c-0.82,0.95-18.66-12.58-20.65-13.8c-37.28-22.93-81.25-33.85-124.71-37.13  c-2.91-0.22-13.78,0.86-15.04-0.95l0.5-207.43c57.37-6.91,118.07,13.46,162.39,49.54c0.65,1.07,0.61,2.21,0.57,3.41  c-0.27,7.82-1.89,17.18-2.09,25c-0.54,21.2-0.76,42.85-1,63.94C1938.29,548.35,1939.15,587.52,1938.77,626.64z"></path>
<path class="st2" d="M2115.6,366.89c0.62,11.48,0.54,23.02,0.95,34.51c1.42,39.66,0.94,79.15,0,118.8  c-0.44,18.55-0.77,36.95-0.95,55.49c-38.49-0.8-74.49,7.03-109.09,23.29c-10.53,4.95-22.09,10.51-31.25,17.7  c-2.03,1.6-12.14,11.98-13.02,11.93c-1.99-0.11-0.33-7.92-1.54-9.42c-0.61-64.35-0.79-128.64-3.94-192.86  c-0.17-3.37-0.17-6.92,0.21-10.27C2001.35,380.16,2058.46,363.2,2115.6,366.89z"></path>
<g>
	<g>
		<g>
			<path class="st3" d="M1742.4,851.97l2.61-2.07c4.07,3.84,4.85,3.22,7.12-0.14c1.57-2.37,3.88-5.98,5.88-9.25l-10.63-13.44     c-2.79,0.97-6.23,2.13-8.97,3.17c-5.59,2.07-4.85,4.17-1.04,10.01l-2.61,2.07l-13.47-17.02l2.61-2.07     c4,3.89,5.51,4.49,13.29,2.15l47.83-14.54l3.25,2.8c-8.79,14.13-17.65,28.75-25.89,42.56c-4.55,7.74-4.55,8.75-1.57,13.68     l-2.61,2.07L1742.4,851.97z M1771.34,819.21c-6.66,2.02-12.92,3.83-19.43,6.19l8.67,10.96L1771.34,819.21z"></path>
			<path class="st3" d="M1816.57,928.65c-0.39-0.36-1.16-1.07-1.88-1.85c-7.84-7.96-8.59-11.94-7.97-16.51     c0.77-6.02,2.61-11.79,4.07-17.78c0.68-2.68,0.14-3.91-1.93-5.82l-1.23-1.26l-8.9,9.67c-4.94,5.36-4.72,6.42-0.42,11.48     l-2.25,2.45l-19.78-18.21l2.25-2.45c5.4,3.99,6.47,4,11.41-1.37l23.35-25.36c4.82-5.23,4.84-6.55,0.36-11.42l2.26-2.45     l18.75,17.26c5.75,5.3,8.44,8.99,9.39,13.29c0.94,4.17,0,8.69-3.78,12.79c-5.42,5.89-12.1,5.5-17.96,3.29     c-0.86,2.88-2.3,9.5-3.16,14.34c-1.09,5.73-1.31,8.82-1.43,11.41c-0.1,3.09,0.12,4.28,1.39,6.66L1816.57,928.65z M1811.87,884.32     c2.78,2.56,5.34,4.06,7.92,4.11c3.84,0.11,7.06-1.57,10.17-4.95c6.46-7.02,4.83-13.17,1.21-16.5c-1.75-1.61-2.83-2.12-3.58-2.08     c-0.82-0.02-1.68,0.66-2.9,1.98l-14.57,15.83L1811.87,884.32z"></path>
			<path class="st3" d="M1838.41,943.95l1.88-2.75c5.86,3.26,6.82,3.26,11.1-2.98l19.39-28.28c4.28-6.23,3.96-7.33-1.17-11.5     l1.88-2.75l22.39,15.36l-1.88,2.75c-5.79-3.21-6.87-3.19-11.15,3.05l-19.39,28.28c-4.23,6.16-3.88,7.05,1.22,11.42l-1.88,2.75     L1838.41,943.95z"></path>
			<path class="st3" d="M1913.21,988.1l1.44-3c5.34,1.66,5.77,0.77,6.33-3.25c0.37-2.81,0.86-7.07,1.22-10.89l-15.45-7.4     c-2.08,2.1-4.66,4.65-6.66,6.79c-4.11,4.32-2.52,5.88,3.46,9.44l-1.44,3l-19.57-9.38l1.44-3c5.3,1.74,6.92,1.62,12.88-3.91     l36.58-34.06l4.15,1.09c-1.69,16.55-3.23,33.58-4.57,49.6c-0.68,8.95-0.24,9.86,4.6,12.98l-1.44,3L1913.21,988.1z      M1924.82,945.96c-5.1,4.74-9.92,9.12-14.74,14.09l12.6,6.04L1924.82,945.96z"></path>
			<path class="st3" d="M2002.63,958.04c10.94,2.61,18.41,6.89,22.62,13.45c3.38,5.16,5.25,12.08,3.13,20.92     c-2.4,10.07-8.35,16.79-16.14,20.3c-7.5,3.39-16.2,3.91-25.94,1.58l-23.5-5.61l0.77-3.24c6.62,1.03,7.58,0.42,9.31-6.84     l7.94-33.27c1.76-7.35,0.98-8.28-5.21-10.31l0.77-3.24L2002.63,958.04z M1984.92,1000.81c-1.48,6.22-0.45,8.68,5.79,10.17     c11.54,2.75,20.17-3.88,24.12-20.43c1.99-8.32,1.5-16.11-1.53-20.81c-2.71-4.53-6.86-6.82-12.59-8.19c-3.16-0.75-4.78-0.4-5.42,0     c-0.96,0.6-1.48,2.05-2.09,4.59L1984.92,1000.81z"></path>
			<path class="st3" d="M2054.56,1025.75l0.16-3.33c6.7-0.32,7.52-0.82,7.87-8.37l1.6-34.25c0.35-7.55-0.49-8.31-7.05-9.16     l0.16-3.33l27.12,1.27l-0.15,3.33c-6.61,0.32-7.52,0.91-7.87,8.46l-1.61,34.25c-0.35,7.46,0.42,8.04,7.05,9.07l-0.16,3.33     L2054.56,1025.75z"></path>
			<path class="st3" d="M2160.08,1006.19c-0.17,2.46-1.48,13.02-2,15.61l-45.33,4.99l-0.35-3.22c7.86-1.68,8.33-2.18,7.51-9.7     l-3.76-34.17c-0.84-7.6-1.94-8.03-7.94-7.91l-0.37-3.31l28.39-3.12c9.17-1.01,12.22-1.44,13.43-1.66     c0.27,1.6,1.51,8.89,2.47,14.4l-3.36,0.82c-1.12-2.96-3.01-6.46-4.67-7.91c-1.77-1.62-2.96-2.03-7.42-1.54l-5.68,0.62     c-3.32,0.37-3.65,0.58-3.31,3.62l2.06,18.7l8.56-0.94c4.89-0.54,5.62-1.98,6.23-8.47l3.41-0.38l2.19,19.95l-3.41,0.38     c-2.12-6.47-2.94-7.46-8.01-6.91l-8.47,0.93l1.69,15.39c0.68,6.17,1.06,8.03,6.49,7.53l6.2-0.68c4.89-0.54,6.13-1.31,7.79-3.94     c1.9-2.83,3.28-6.34,4.34-9.53L2160.08,1006.19z"></path>
			<path class="st3" d="M2226.56,961.31c-2.03-3.73-4.8-6.52-5.99-7.5c-2.03-1.4-2.9-1.91-7.89-0.53l-5.42,1.5l11.24,40.78     c2.01,7.29,3,7.58,10.71,6.1l0.88,3.21l-28.12,7.76l-0.88-3.21c7.03-2.59,7.65-3.32,5.64-10.61l-11.24-40.78l-5.17,1.43     c-4.74,1.31-5.88,2.46-6.92,4.99c-0.73,1.98-1.05,5.43-1.2,9.2l-3.22,0.89c-1.15-6.5-2.43-13.43-3.41-17.64l2.54-0.7     c1.82,1.65,2.88,1.54,5.43,0.84l33.88-9.34c2.29-0.63,3.33-1.48,4.31-3.52l2.46-0.68c1.09,3.62,3.53,11.16,5.51,16.68     L2226.56,961.31z"></path>
		</g>
	</g>
	<g>
		<g>
			<path class="st4" d="M1742.4,851.97l2.61-2.07c4.07,3.84,4.85,3.22,7.12-0.14c1.57-2.37,3.88-5.98,5.88-9.25l-10.63-13.44     c-2.79,0.97-6.23,2.13-8.97,3.17c-5.59,2.07-4.85,4.17-1.04,10.01l-2.61,2.07l-13.47-17.02l2.61-2.07     c4,3.89,5.51,4.49,13.29,2.15l47.83-14.54l3.25,2.8c-8.79,14.13-17.65,28.75-25.89,42.56c-4.55,7.74-4.55,8.75-1.57,13.68     l-2.61,2.07L1742.4,851.97z M1771.34,819.21c-6.66,2.02-12.92,3.83-19.43,6.19l8.67,10.96L1771.34,819.21z"></path>
			<path class="st4" d="M1816.57,928.65c-0.39-0.36-1.16-1.07-1.88-1.85c-7.84-7.96-8.59-11.94-7.97-16.51     c0.77-6.02,2.61-11.79,4.07-17.78c0.68-2.68,0.14-3.91-1.93-5.82l-1.23-1.26l-8.9,9.67c-4.94,5.36-4.72,6.42-0.42,11.48     l-2.25,2.45l-19.78-18.21l2.25-2.45c5.4,3.99,6.47,4,11.41-1.37l23.35-25.36c4.82-5.23,4.84-6.55,0.36-11.42l2.26-2.45     l18.75,17.26c5.75,5.3,8.44,8.99,9.39,13.29c0.94,4.17,0,8.69-3.78,12.79c-5.42,5.89-12.1,5.5-17.96,3.29     c-0.86,2.88-2.3,9.5-3.16,14.34c-1.09,5.73-1.31,8.82-1.43,11.41c-0.1,3.09,0.12,4.28,1.39,6.66L1816.57,928.65z M1811.87,884.32     c2.78,2.56,5.34,4.06,7.92,4.11c3.84,0.11,7.06-1.57,10.17-4.95c6.46-7.02,4.83-13.17,1.21-16.5c-1.75-1.61-2.83-2.12-3.58-2.08     c-0.82-0.02-1.68,0.66-2.9,1.98l-14.57,15.83L1811.87,884.32z"></path>
			<path class="st4" d="M1838.41,943.95l1.88-2.75c5.86,3.26,6.82,3.26,11.1-2.98l19.39-28.28c4.28-6.23,3.96-7.33-1.17-11.5     l1.88-2.75l22.39,15.36l-1.88,2.75c-5.79-3.21-6.87-3.19-11.15,3.05l-19.39,28.28c-4.23,6.16-3.88,7.05,1.22,11.42l-1.88,2.75     L1838.41,943.95z"></path>
			<path class="st4" d="M1913.21,988.1l1.44-3c5.34,1.66,5.77,0.77,6.33-3.25c0.37-2.81,0.86-7.07,1.22-10.89l-15.45-7.4     c-2.08,2.1-4.66,4.65-6.66,6.79c-4.11,4.32-2.52,5.88,3.46,9.44l-1.44,3l-19.57-9.38l1.44-3c5.3,1.74,6.92,1.62,12.88-3.91     l36.58-34.06l4.15,1.09c-1.69,16.55-3.23,33.58-4.57,49.6c-0.68,8.95-0.24,9.86,4.6,12.98l-1.44,3L1913.21,988.1z      M1924.82,945.96c-5.1,4.74-9.92,9.12-14.74,14.09l12.6,6.04L1924.82,945.96z"></path>
			<path class="st4" d="M2002.63,958.04c10.94,2.61,18.41,6.89,22.62,13.45c3.38,5.16,5.25,12.08,3.13,20.92     c-2.4,10.07-8.35,16.79-16.14,20.3c-7.5,3.39-16.2,3.91-25.94,1.58l-23.5-5.61l0.77-3.24c6.62,1.03,7.58,0.42,9.31-6.84     l7.94-33.27c1.76-7.35,0.98-8.28-5.21-10.31l0.77-3.24L2002.63,958.04z M1984.92,1000.81c-1.48,6.22-0.45,8.68,5.79,10.17     c11.54,2.75,20.17-3.88,24.12-20.43c1.99-8.32,1.5-16.11-1.53-20.81c-2.71-4.53-6.86-6.82-12.59-8.19c-3.16-0.75-4.78-0.4-5.42,0     c-0.96,0.6-1.48,2.05-2.09,4.59L1984.92,1000.81z"></path>
			<path class="st4" d="M2054.56,1025.75l0.16-3.33c6.7-0.32,7.52-0.82,7.87-8.37l1.6-34.25c0.35-7.55-0.49-8.31-7.05-9.16     l0.16-3.33l27.12,1.27l-0.15,3.33c-6.61,0.32-7.52,0.91-7.87,8.46l-1.61,34.25c-0.35,7.46,0.42,8.04,7.05,9.07l-0.16,3.33     L2054.56,1025.75z"></path>
			<path class="st4" d="M2160.08,1006.19c-0.17,2.46-1.48,13.02-2,15.61l-45.33,4.99l-0.35-3.22c7.86-1.68,8.33-2.18,7.51-9.7     l-3.76-34.17c-0.84-7.6-1.94-8.03-7.94-7.91l-0.37-3.31l28.39-3.12c9.17-1.01,12.22-1.44,13.43-1.66     c0.27,1.6,1.51,8.89,2.47,14.4l-3.36,0.82c-1.12-2.96-3.01-6.46-4.67-7.91c-1.77-1.62-2.96-2.03-7.42-1.54l-5.68,0.62     c-3.32,0.37-3.65,0.58-3.31,3.62l2.06,18.7l8.56-0.94c4.89-0.54,5.62-1.98,6.23-8.47l3.41-0.38l2.19,19.95l-3.41,0.38     c-2.12-6.47-2.94-7.46-8.01-6.91l-8.47,0.93l1.69,15.39c0.68,6.17,1.06,8.03,6.49,7.53l6.2-0.68c4.89-0.54,6.13-1.31,7.79-3.94     c1.9-2.83,3.28-6.34,4.34-9.53L2160.08,1006.19z"></path>
			<path class="st4" d="M2226.56,961.31c-2.03-3.73-4.8-6.52-5.99-7.5c-2.03-1.4-2.9-1.91-7.89-0.53l-5.42,1.5l11.24,40.78     c2.01,7.29,3,7.58,10.71,6.1l0.88,3.21l-28.12,7.76l-0.88-3.21c7.03-2.59,7.65-3.32,5.64-10.61l-11.24-40.78l-5.17,1.43     c-4.74,1.31-5.88,2.46-6.92,4.99c-0.73,1.98-1.05,5.43-1.2,9.2l-3.22,0.89c-1.15-6.5-2.43-13.43-3.41-17.64l2.54-0.7     c1.82,1.65,2.88,1.54,5.43,0.84l33.88-9.34c2.29-0.63,3.33-1.48,4.31-3.52l2.46-0.68c1.09,3.62,3.53,11.16,5.51,16.68     L2226.56,961.31z"></path>
		</g>
	</g>
</g>
<g>
	<g>
		<path class="st2" d="M2280.24,942.5c4.39-2.38,8.11-3.21,11.42-2.34c2.62,0.66,5.26,2.33,7.14,5.79    c2.14,3.94,2.13,7.85,0.58,11.27c-1.49,3.3-4.23,6.02-8.13,8.15l-9.43,5.12l-0.69-1.27c2.49-1.62,2.63-2.1,1.09-4.94l-7.07-13.02    c-1.56-2.88-2.09-2.95-4.74-1.78l-0.69-1.27L2280.24,942.5z M2286.85,961.45c1.32,2.43,2.39,2.92,4.89,1.56    c4.63-2.51,5.55-7.19,2.03-13.66c-1.77-3.26-4.21-5.62-6.58-6.23c-2.22-0.66-4.26-0.17-6.56,1.08c-1.27,0.69-1.7,1.28-1.79,1.6    c-0.14,0.48,0.11,1.1,0.65,2.09L2286.85,961.45z"></path>
		<path class="st2" d="M2339.88,935.65c-0.2,0.13-0.58,0.39-1,0.62c-4.25,2.55-6.04,2.48-7.92,1.76c-2.49-0.92-4.75-2.27-7.15-3.49    c-1.07-0.55-1.66-0.44-2.69,0.25l-0.67,0.4l3.16,4.74c1.75,2.63,2.23,2.64,4.86,1.31l0.8,1.2l-9.93,6.62l-0.8-1.2    c2.29-1.9,2.41-2.36,0.66-4.99l-8.28-12.43c-1.71-2.56-2.27-2.7-4.84-1.28l-0.8-1.2l9.41-6.27c2.89-1.92,4.76-2.7,6.7-2.68    c1.88,0.01,3.71,0.86,5.05,2.87c1.92,2.89,1.03,5.69-0.55,7.96c1.13,0.65,3.81,1.92,5.78,2.76c2.32,1.03,3.62,1.43,4.71,1.73    c1.31,0.35,1.84,0.37,3,0.07L2339.88,935.65z M2320.44,933.27c1.39-0.93,2.31-1.87,2.62-2.96c0.46-1.62,0.1-3.16-1.01-4.81    c-2.29-3.44-5.09-3.35-6.91-2.14c-0.88,0.58-1.21,1-1.28,1.32c-0.1,0.35,0.1,0.78,0.53,1.43l5.17,7.76L2320.44,933.27z"></path>
		<path class="st2" d="M2353.66,925.66c-1.46,1.11-3.34,0.82-4.5-0.71c-1.13-1.49-0.89-3.38,0.57-4.49c1.46-1.11,3.37-0.84,4.5,0.65    C2355.39,922.64,2355.15,924.53,2353.66,925.66z"></path>
		<path class="st2" d="M2384.18,900.02l-0.95-1.09c2.03-2.19,1.99-2.52-0.32-5.16l-10.04-11.42c2.3,6.9,4.86,14.5,7.12,21.34    l-0.97,0.85c-6.09-3.12-12.96-6.75-19.56-10.04c7.68,9.55,9.27,11.37,10.2,12.43c1.42,1.56,2.36,1.46,4.74-0.26l0.95,1.09    l-7.28,6.37l-0.95-1.09c1.54-1.61,2.03-2.6,0.72-4.57c-0.65-0.98-2-2.76-9.8-13.04c-1.14-1.49-2.04-2.1-4.77-0.12l-0.95-1.09    l6.34-5.55l16.99,7.99l-5.63-17.93l6.19-5.42l0.95,1.09c-2.14,2.29-2.2,2.75-0.09,5.05l9.87,10.8c2.34,2.62,2.56,2.63,5.22,0.87    l0.95,1.09L2384.18,900.02z"></path>
		<path class="st2" d="M2404.53,880.81l-1.04-1c1.87-2.32,1.95-2.73-0.41-5.01l-10.66-10.35c-2.35-2.28-2.85-2.22-5.05-0.28l-1.04-1    l8.39-8.65l1.04,1c-1.84,2.29-1.92,2.76,0.43,5.04l10.66,10.35c2.32,2.25,2.73,2.17,5.02,0.26l1.04,1L2404.53,880.81z"></path>
		<path class="st2" d="M2439.83,841.49c-0.15,0.18-0.45,0.54-0.78,0.87c-3.35,3.66-5.08,4.09-7.09,3.95    c-2.65-0.17-5.2-0.83-7.85-1.3c-1.18-0.22-1.71,0.05-2.51,1.01l-0.53,0.57l4.38,3.64c2.43,2.02,2.89,1.9,5.03-0.13l1.11,0.92    l-7.63,9.17l-1.11-0.92c1.66-2.48,1.64-2.95-0.79-4.97l-11.48-9.56c-2.37-1.97-2.95-1.95-5,0.15l-1.11-0.92l7.23-8.7    c2.22-2.67,3.79-3.95,5.66-4.48c1.81-0.53,3.8-0.24,5.66,1.31c2.67,2.22,2.61,5.16,1.74,7.79c1.27,0.3,4.2,0.75,6.32,1    c2.52,0.32,3.88,0.34,5.02,0.32c1.35-0.04,1.87-0.17,2.89-0.79L2439.83,841.49z M2420.52,844.76c1.07-1.29,1.69-2.45,1.66-3.59    c-0.02-1.69-0.81-3.06-2.33-4.33c-3.18-2.64-5.84-1.76-7.24-0.08c-0.67,0.81-0.88,1.3-0.85,1.63c0.01,0.36,0.32,0.72,0.92,1.22    l7.17,5.96L2420.52,844.76z"></path>
		<path class="st2" d="M2454.6,807.72c1.07,1.06,4.06,4.43,4.98,5.49l-11.83,17.28l-0.86-0.26c-3.2-7.96-6.86-16.84-10.3-25.06    l-3.39,4.96c-1.59,2.32-1.64,3.08-1.01,4.51c0.31,0.78,1,1.92,1.88,3.18l-0.87,1.2c-1.83-1.54-4.7-3.97-6.05-5.04l0.77-1.13    c1.04,0.14,1.38-0.29,2.04-1.25l8.9-13l0.73,0.17c3.36,8.07,6.86,16.56,10.48,24.95c0.82-1,1.46-1.93,2.85-3.96    c2.62-3.83,2.94-4.51,2.71-6.04c-0.18-1.26-1.02-3.2-2.17-4.98L2454.6,807.72z"></path>
		<path class="st2" d="M2474.67,787.61l-1.27-0.69c0.87-2.32,0.5-2.53-1.24-2.86c-1.21-0.22-3.05-0.52-4.7-0.75l-3.65,6.67    c0.85,0.96,1.89,2.15,2.76,3.07c1.76,1.9,2.48,1.23,4.2-1.34l1.27,0.69l-4.63,8.45l-1.27-0.69c0.91-2.3,0.9-3.02-1.34-5.76    l-13.78-16.8l0.59-1.81c7.15,1.07,14.51,2.08,21.44,2.99c3.88,0.48,4.28,0.3,5.77-1.77l1.27,0.69L2474.67,787.61z M2456.67,781.66    c1.92,2.34,3.68,4.55,5.71,6.78l2.98-5.44L2456.67,781.66z"></path>
		<path class="st2" d="M2488.24,742.62c0.9,0.59,4.61,3.32,5.48,4.07l-7.81,18.67l-1.29-0.54c1.04-3.41,0.96-3.7-2.07-4.96    l-13.75-5.75c-3.06-1.28-3.45-0.94-4.69,1.42l-1.33-0.56l4.89-11.69c1.58-3.78,2.07-5.05,2.25-5.57c0.66,0.23,3.69,1.29,5.98,2.08    l-0.41,1.48c-1.36-0.19-3.09-0.19-3.99,0.15c-0.99,0.35-1.4,0.72-2.17,2.56l-0.98,2.34c-0.57,1.37-0.56,1.54,0.66,2.05l7.52,3.14    l1.47-3.53c0.84-2.02,0.45-2.6-1.88-4.21l0.59-1.4l8.02,3.36l-0.59,1.4c-2.9-0.54-3.46-0.43-4.33,1.66l-1.46,3.49l6.19,2.59    c2.48,1.04,3.27,1.28,4.24-0.93l1.07-2.55c0.84-2.01,0.82-2.66,0.18-3.86c-0.67-1.34-1.7-2.61-2.68-3.7L2488.24,742.62z"></path>
		<path class="st2" d="M2499.52,730.28l-1.38-0.43c0.62-2.91,0.5-3.32-2.63-4.29l-14.19-4.41c-3.13-0.97-3.54-0.69-4.63,2.03    l-1.38-0.43l3.57-11.51l1.38,0.43c-0.61,2.87-0.46,3.33,2.67,4.3l14.19,4.41c3.09,0.96,3.42,0.69,4.6-2.04l1.38,0.43    L2499.52,730.28z"></path>
		<path class="st2" d="M2509.97,690.64l-1.41-0.29c0.16-2.48-0.26-2.56-2.02-2.37c-1.22,0.14-3.07,0.4-4.72,0.66l-1.54,7.45    c1.1,0.67,2.44,1.5,3.54,2.13c2.24,1.3,2.73,0.45,3.63-2.51l1.41,0.29l-1.96,9.43l-1.41-0.29c0.19-2.47-0.02-3.15-2.96-5.12    l-18.1-12.04l0.04-1.91c7.15-1.07,14.49-2.25,21.38-3.41c3.85-0.68,4.18-0.97,5-3.38l1.41,0.29L2509.97,690.64z M2491.01,690.21    c2.52,1.68,4.86,3.28,7.45,4.81l1.26-6.07L2491.01,690.21z"></path>
		<path class="st2" d="M2492.9,636.25c0.1,2.4,0.54,3.18,2.28,3.45c1.51,0.25,2.82,0.48,6.2,0.78l15.46,1.37l-0.19,2.18    l-20.86,14.48l8.78,0.78c3.38,0.3,4.9,0.35,6.04,0.34c1.72,0,2.69-0.74,3.1-3.6l1.44,0.13l-0.85,9.63l-1.44-0.13    c0-2.23-0.49-3.25-2.3-3.65c-1.38-0.28-2.78-0.48-6.16-0.78l-9.21-0.81c-1.28-0.11-2.14-0.11-3.22,0.54    c-1.03,0.61-1.23,1.54-1.53,3.15l-1.44-0.13l0.67-7.58l18.52-13.28l-6.99-0.62c-3.38-0.3-4.67-0.37-6.11-0.38    c-1.68-0.03-2.55,0.52-3.03,3.73l-1.44-0.13l0.85-9.6L2492.9,636.25z"></path>
	</g>
</g>
<g>
	<path class="st5" d="M272.29,698.73c88.45-4.89,178.07-34.87,263.76-78.35c32.75-16.62,32.59-16.93,48.32,14.38   c11.8,23.49,46.16,24.33,68.8,1.61c2.42-2.43,3.82-6.27,6.6-7.89c7.73-4.51,2.94-26.25,18.53-16.93c13.05,7.8,6.04,22.32-0.4,32.53   c-16.51,26.17-41.54,38.65-71.95,39.18c-17.2,0.3-29.96-8.91-35.36-25.53c-6.84-21.07-17.34-19.87-35.01-10.83   c-99.38,50.82-203.7,81.74-316.93,73.8c-14.82-1.04-29.05-4.2-42.98-9.23c-24.44-8.83-48-20.98-52.12-48.74   c-4.89-32.96,9.77-60.71,34-83.12c3.67-3.4,8.45-8.47,13.47-4.95c6.97,4.88,1.55,11.12-1.31,15.91   c-6.21,10.39-14.02,19.86-19.74,30.49c-15.29,28.4-7.54,50.4,22.18,62.85C201.45,696.15,232.59,697.92,272.29,698.73z"></path>
	<path class="st5" d="M1510.65,486.28c-16.3-2.1-33.63-3.42-50.56-6.73c-24.37-4.76-41.5,5.48-56.75,22.98   c-15.1,17.31-22.9,38.64-34.23,58.01c-6.18,10.58-11.02,29.76-26.59,20.89c-16.55-9.43,0.56-22.65,5.42-32.75   c8.23-17.1,19.5-32.7,28.8-49.32c22.78-40.73,58.39-52.97,101.56-43.28c34.83,7.81,65.08,1.4,93.08-19.69   c6.8-5.13,14.96-12.87,22.7-4.45c8.76,9.53,0.16,17.69-6.79,24.09C1565.95,475.64,1540.06,484.16,1510.65,486.28z"></path>
	<path class="st5" d="M1081.95,683.56c-33.83,0.27-52.77-19.9-47.5-52.27c4.2-25.8,35.5-97.28,53.92-114.8   c3.26-3.1,7.57-5.95,11.45-3.34c5.19,3.48-1.1,7.68-3.94,12.29c-9.04,14.65-70.22,122.87-18.52,127.16   c26.02,0.95,47.27-7.13,60.32-31.56c2.62-4.9,2.28-16.37,12.81-11.06c7.65,3.86,8.69,11.89,6.97,20.36   C1152.09,656.83,1114.78,683.3,1081.95,683.56z"></path>
	<path class="st5" d="M889.35,629.32c-0.32,39.33-35.2,84.12-72.57,94.7c-10.47,2.96-22.45,4.2-26.16-8.68   c-3.96-13.77,5.19-19.8,18.32-22.32c45.58-8.75,63.23-44.1,43.4-85.61c-4.08-8.53-10.25-18.26,1.91-24.74   c10.53-5.61,17.86,1.72,23.98,9.54C887.24,603.7,890.32,616.94,889.35,629.32z"></path>
	<path class="st5" d="M458.71,503.65c-77.63,16.73-154.17,32.24-225.9,70.09c-0.9-17.67,8.37-26.17,20.33-30.98   c57.86-23.25,117.52-40.49,179.16-50.37C440.34,491.11,449.85,488.96,458.71,503.65z"></path>
	<path class="st5" d="M1150.24,736.1c30.87-17.36,54.04-34.44,74.53-54.77c19-18.86,38.35-37.37,57.68-55.89   c3.88-3.72,9.35-6.52,14.05-3.28c4.77,3.3,3.46,9.57,1.92,14.46c-8.97,28.51-103.39,101.6-133.93,103.82   C1162.91,740.55,1161.25,739.51,1150.24,736.1z"></path>
	<path class="st5" d="M698.06,763.05c-27.15,9.65-55.89,10.84-81.85,22.92c-4.16,1.94-8.84,0.19-11.02-4.13   c-3.85-7.62,2.53-11.41,7.27-14.29C639.91,750.83,668.62,751.39,698.06,763.05z"></path>
	<path class="st5" d="M1137.46,717.08c-31.86,6.83-59.84,7.56-85,19.47c-5.29,2.5-10.48,1.43-13.13-4.13   c-2.91-6.1,2.25-9.33,5.98-12.65C1063.73,703.39,1108.78,700.62,1137.46,717.08z"></path>
	<path class="st5" d="M704.34,723.17c0.66-0.03,1.3-0.21,1.89-0.52c8.42-4.53,16.88-9.55,22.13-13.83   c55.99-41.6,73.76-104.86,76.87-159.62c0.47-8.38-7.44-14.71-15.47-12.29h0c-5.72,1.72-9.38,7.19-9,13.16   c5.06,80.09-50.68,141.29-79.44,165.39C698.1,718.14,700.17,723.36,704.34,723.17L704.34,723.17z"></path>
	<path class="st5" d="M1365.22,723.17c0.66-0.03,1.3-0.21,1.89-0.52c8.42-4.53,16.88-9.55,22.13-13.83   c56.04-41.64,73.79-104.96,76.87-159.76c0.47-8.31-7.38-14.59-15.35-12.19l0,0c-5.8,1.75-9.5,7.29-9.12,13.33   c4.99,80.02-50.7,141.17-79.45,165.26C1358.98,718.14,1361.05,723.36,1365.22,723.17L1365.22,723.17z"></path>
</g>
<path class="st5" d="M1555.33,269.33"></path>
</svg>
